<mxfile host="app.diagrams.net" agent="Mozilla/5.0 (Windows NT 10.0; Win64; x64) AppleWebKit/537.36 (KHTML, like Gecko) Chrome/130.0.0.0 Safari/537.36" version="24.8.1">
  <diagram id="C5RBs43oDa-KdzZeNtuy" name="Page-1">
    <mxGraphModel dx="1615" dy="857" grid="0" gridSize="10" guides="1" tooltips="1" connect="1" arrows="1" fold="1" page="1" pageScale="1" pageWidth="827" pageHeight="1169" math="0" shadow="0">
      <root>
        <mxCell id="WIyWlLk6GJQsqaUBKTNV-0" />
        <mxCell id="WIyWlLk6GJQsqaUBKTNV-1" parent="WIyWlLk6GJQsqaUBKTNV-0" />
        <mxCell id="EDwAw3rbuMBAc9x-66SU-1" value="" style="ellipse;whiteSpace=wrap;html=1;aspect=fixed;fillColor=#030303;" parent="WIyWlLk6GJQsqaUBKTNV-1" vertex="1">
          <mxGeometry x="420" y="10" width="30" height="30" as="geometry" />
        </mxCell>
        <mxCell id="EDwAw3rbuMBAc9x-66SU-20" value="" style="ellipse;whiteSpace=wrap;html=1;aspect=fixed;fillColor=#ffffff;" parent="WIyWlLk6GJQsqaUBKTNV-1" vertex="1">
          <mxGeometry x="415.01" y="585" width="40" height="40" as="geometry" />
        </mxCell>
        <mxCell id="EDwAw3rbuMBAc9x-66SU-22" value="" style="ellipse;whiteSpace=wrap;html=1;aspect=fixed;fillColor=#030303;" parent="WIyWlLk6GJQsqaUBKTNV-1" vertex="1">
          <mxGeometry x="420.01" y="590" width="30" height="30" as="geometry" />
        </mxCell>
        <mxCell id="ui-QZUOksp0xXdlFiPpI-1" value="" style="endArrow=classic;html=1;rounded=0;exitX=0.5;exitY=1;exitDx=0;exitDy=0;entryX=0.5;entryY=0;entryDx=0;entryDy=0;" parent="WIyWlLk6GJQsqaUBKTNV-1" source="EDwAw3rbuMBAc9x-66SU-1" edge="1" target="OF0bnibXMQKsjCnrB5dy-0">
          <mxGeometry width="50" height="50" relative="1" as="geometry">
            <mxPoint x="434.76" y="51" as="sourcePoint" />
            <mxPoint x="434.3372093023256" y="78" as="targetPoint" />
          </mxGeometry>
        </mxCell>
        <mxCell id="ui-QZUOksp0xXdlFiPpI-6" value="" style="endArrow=classic;html=1;rounded=0;entryX=0.5;entryY=0;entryDx=0;entryDy=0;" parent="WIyWlLk6GJQsqaUBKTNV-1" edge="1" target="OF0bnibXMQKsjCnrB5dy-2" source="OF0bnibXMQKsjCnrB5dy-0">
          <mxGeometry width="50" height="50" relative="1" as="geometry">
            <mxPoint x="432.67020408163256" y="266" as="sourcePoint" />
            <mxPoint x="433" y="304" as="targetPoint" />
          </mxGeometry>
        </mxCell>
        <mxCell id="OF0bnibXMQKsjCnrB5dy-0" value="" style="shape=image;verticalLabelPosition=bottom;labelBackgroundColor=default;verticalAlign=top;aspect=fixed;imageAspect=0;image=data:image/png,iVBORw0KGgoAAAANSUhEUgAAAWAAAAJuCAYAAACOg9ihAAAAAXNSR0IArs4c6QAAAARnQU1BAACxjwv8YQUAAAAJcEhZcwAAEnQAABJ0Ad5mH3gAADNVSURBVHhe7d0JlBTVvcfxPzPAwDAw7DuyCCoMqyBqRONBosanxv24+yQ+44IiSCLmqU/JiZocA2iMcYeXp4kx7ibiUZ/4Hri9KIvsm4AiiwPCsMjOvP7fuTVTU9Mz08P01K2e+n7OqdN1q5uhZ7r617f/detWg+IEAQCELsveAgBCRgADgCMEMAA4QgADgCMEMAA4QgADgCMEMAA4QgADgCMEMAA4QgADgCP1+lTkvXv3SlW/nt7XoEED2wLg2r59++TQoUNmPSsrSxo3bixNmjQx7foo4wN45cqV8tprr8ny5ctl48aNpcu6devsIyrXrl07KSwstC0ArhUUFMiiRYtsq0zHjh1Ll969e8tZZ50lp556asaHc8YF8I4dO+SDDz4oXebOnWvvqbk2bdrIli1bbAuAaxqq+r5ORdeuXeWUU06RESNGmNt+/frZezJHxgTwgQMH5PHHH5dnn31W5s2bZ7fWTt++fWXJkiW2BcC1Hj16yJo1a2wrdRrGl112mVkGDx5st0ZfRgTw0qVLZfTo0fLJJ5/YLdXT2pHWk1q1aiXNmjWzW8sbOXKkvPPOO7ZVvd27d0tRUZFtIZmcnBxT2qnMhg0b5ODBg7YFlHfaaafJf//3f9tWzbVs2VJ++ctfypgxYzKiPBHpAF61apU89dRT8sQTT6QUfMccc4z59Dv22GNL1/WTsa7s379f9uzZY4JZb70llbYeIAxuq0mbEEN9dPbZZ8vf//532zp8+r7/7W9/K5deeqndEk2RDWA9uHb11VdX2evNy8uT8847z/RkzzzzTFOgj4PNmzfLzp07bUvMAUct0Si99R+A1Mf569y6XpN/q/9XHLRt29bsT6moq8fq/qvfIOKsc+fOsn79etsqs3btWlOa8JZUNGrUSCZMmCC33367tG7d2m6NlkgG8Pvvv2/+cJXVerVQryWJiy66qF4PUYmamgR/TejXRl1SUVePRWbRsuRLL70kf/rTn0xnrSqaFRrCeswnaiIXwAsXLpSxY8fKzJkz7ZYyGrha38mkIjuAuqWjJjSIn3vuudIOQVD//v3ljTfeMAf5oiRSAfztt9/K+PHj5c9//rPdUkLrOY899pipDwFAMjNmzDAjpd588027pTwt8cyZMydSpcrsexPsunP33XefOeDmd9JJJ8m7775rDqwBQGX69OljxgPn5uaakzn0wLWfls+++uorOf744yU/P99udSsyPWD9+qAH3fx0YLUehEv1IAYAqPfee0/OPfdcM2Io6MorrzQliyiIzGQ8WmLwGzp0qEyfPp3wBVBjo0aNkilTppjzAIK0s/fggw/alluRCOCHH364wnCzm2++WYYNG2ZbAFAzP/vZz+SOO+4wk/oE3XPPPTJ79mzbcsd5AC9btqzC1wE9G+biiy+2LQA4PL/4xS/k1ltvta0yOlri0UcfNSdTueQ8gGfNmlVhQp0LL7yw0tOHAaAm9Iw4nUEt6MUXX5TXX3/dttxwGsD6KaR/HD8dOB/10wcBZI6GDRvKnXfeaVvl6VQHOvzVFacBPHXq1Apnsdxwww2cvQQgrXSElY5+CNIhrs8//7xthc9ZAOuk6a+++qptldDTinXoCACkU3Z2tjnwpr3hIL2ggyvOAljnefj4449tq4TO8XDCCSfYFgCkj9aBdfKuID0Ola45xmvKWQDredlBP/zhD+0aAKTf5ZdfbtfKq8m84OnkJIB1Vq1kky6fccYZdg0A0m/IkCFy9NFH21aZDz/80K6Fy0kAf/TRR7JixQrbKjFgwABmOQNQp7p37y4/+tGPbKuMBrCekxA2JwEcrP2qZJ9KAJBuyY4zfffddzJ//nzbCo+TANZLDQXpJYQAoK7p3MDJaAiHLTIBTA8YQBgKCgqSdvgKCwvtWnicBPCmTZvsWhkCOHPopYe2bdtmWwjSKRD1umX8jaJJxwQn6wW7CODQ5wPWERCdOnWqcFVfvRBffb2opr4hP/vsM3PqtR5ojOqZfno5KB0PqeGhE1d7IeJdCy5dF+iszbXawvi3lf2uyS4G6f1tqqOXwvH+fx2PesQRR5hb7YlpGCQ7QQB156GHHjIT9fhdcskl8sILL9hWSDSAw7RgwYLiBg0alFuaNm1avHv3bvuI+mPFihXFV111VXHz5s3L/b7jxo0r3r9/v32UO/r8fvWrXxX/6Ec/qvAcWcJb9G9/8sknF997773FX3/9tX11UJemTJlS4XUYOXKkvTc8oQfw3LlzK/ziiZ6vvbf++Nvf/lZlqP34xz929qHz5ptvFg8YMCDp82Jxv+i+sXr1avtqoS5Mmzatwt990KBB9t7whF6C0K+4weu7af13yZIltpX5EuErN954Y7VHVRM7gVxzzTW2Vfe0BHLTTTfJ008/bbckpxdB1a/Muhx55JFmm46f9KRyZdlkX9dTtXbtWrtWc7X5t8m0bdu2wtSoOTk5Sctl+nfzlxKCpQyd/0RLOzoBlf59qrqcupYqdLpEvbID0k/nf7jgggtsq4SeixD6UDQTwyFK1gPu2bOnvbd+uOyyy0p/t0aNGpmSg37d115Nnz59Su8755xz7L8Ixx//+MfS/9tbOnXqVHzttdcWP/XUU+a1qY+loKjSv/XHH39svg7rvqClOP9ro99SUDdmzpxZ7m+ty8CBA+294YlEALvo+tclf8hqXc/vlltuKb3vuOOOs1vDkeiVl/7f7dq1K54xY0YkatEoNq/DX/7yl+JWrVqVvka6FBYW2kcgnbQz5P876+IigJ0MQws6dOiQXasf/F8tva/wHv/QJC0JhOmoo46yayXPQ78ec/TdDR3K9/bbb5uLQ+pX4fbt25uJYvz7h84OqCUQpF9RUZFdK5PIQ7sWnkjUgPv27Wuu419f5Obmll4OW6/4MWHCBLOuw7yGDx9eet91110nTz75pFkPw9KlSyXxKV8u+LVuqadm6pAorW0ifXbt2lWhBuzVfqv78NWhaVoD5gzRuvHFF19UmHtG/+a6PVQawGFKVoJI7GT23vpBh555v5vWgHWI0Yknnljud9ZFRyOETYedBZ8HS3SWbt26Fd99993FO3bssK8Y6sL8+fMr/O0TAWzvDQ8liDqglz/xaE9HL38dvOz+RRddJGeffbZtheeuu+4yve76etJLptGrwIwYMUImTpxo5qTVURKTJk2SvLw8+wjUhUTg2jW3IlGC0DppcHrKTKeXvNYzbbxyg9+YMWPk/vvvd/om0+elNUgti+jXLr1N9lyT0edNbbJmvDPh8vPzzZA+bXvD/ajDh0/3dy3H+ekcEQsWLLCtcEQigHUn/PLLL22r/tD6n4431F6Nrvfr18+M66SuB7ilx5x03K+fvj81mMMUiQDW8+JrM3AfAGpi8eLFFSbkcRHA1IABwJFIBHBwZjQAqEvJDsKFXAww6AEDiJ2ojIIggAHEDgHsQwkCgGuUIAAgBPSAfQhgAGHiIJwPJQgAYaIH7EMPGECYCGAfAhiAa5QgACAE9IB9tAfs4tMHQDwRwD4awJQhAISFURABBDCAsNADDqAODCBu6AEDiB16wAEEMICwEMABlCAAhIWDcAH0gAHEDQEMIHYoQQRQggAQFkoQAVX1gN9++215/PHHZdu2bXYLABw+esABlQXw008/LWeddZbcdNNNMmnSJLsVAA5fVHrADRL/aaj/67x58+TYY4+1rTJr166Vbt262VaZ8ePHy9SpU8364MGDZc6cOWY9HXbu3CmbN2+2LQCuNWrUSPbv329btdOkSRPp2LGjbZW3ceNG6dy5s22V6NWrl6xcudK2whGZAF69erV0797dtko899xzcuONN8quXbvslvTq06ePrFixwrYAuKahuH79etuqvQkTJshvf/tb2yqzadMm6dSpk22VcBHAkS5BTJ48uc7CF0D9pyXMZDgIF5BsFMSoUaPsWt3YunWrXQMQBel+Tw4bNsyulcdBuIBkPWD96nDFFVfYVvrl5ubaNQBRkO735NChQ+1aeQRwQGWjINq1a2fX0m/Dhg12DUAUuCw5uihBROYg3MKFC6Vfv362VcY/CsKvRYsWtQ7nhg0byoEDB2wLgGtaiszOzratmtGRDcEAHz16dNI68JYtWyrkR48ePeTLL7+0rXBEJoDnz58vAwYMsK0ylQXwNddcI2PGjLEtAHH385//XD744APbKnHHHXfIAw88YFtlvvvuO2nbtq1tldBRWDoaK0yRL0EAiJ6WLVuaHmNwKFemiG0NeN++fXatvJrOBcEIBsRdVlaWWdKtqp+pB8mOPPJI6dmzp7Rp08aM2+3bt6+0bt3aPsKd77//3q5VL1kAuyhHhh7AjRs3tmvl1bQH3KpVK7sGxIOeJdahQwcTfnq8ZMiQIWYpKCgwJxHofZW9v1Kl76suXbrYVkXa69U6q56wsHz5crNo7VXPYk3t/86Spm26SPfEz+naNjetAVTbERR6TChsoQdwZShBAMlpb619+/YmaPXg8549e8zZYgsWLDDHTtatW2dCMS8vzzxGT7+t6Vds78CX9n4rOwimAdu0aVMTuPn5+aYHrMuOHTtk9+7dkpOTYx9ZXpMufWXwwD7SRhpKm94F0rd7e2mdCPr23fvKoIIjpKl9XKmsHGnWvImUfxZZktvxSOlb0E+O6d1F8g/vOF3kEMBAhGno6Vd8PWKvR+j11HkdPqkzA2o5T782FxUVmVNrV61aJcuWLTP1We0h16RHmOwAeFW0p+wFsB7HTx7aidDs0Et6tW0q2VnZ0jCnvbTPayA71s6XuXPnyoqi/YkPimxpZB+tGuR2kp5dm8meXQ2kTa8+0r2lRlQDye16tBzVKVcO7d4jxU3aSc+jOpf7d5kqMgHMfMBARdqT1QmjFi9eLNu3b7dbK6d10KVLl5qQrq4+7A/Nwx36VaXsfOnUtpk02LtH9ulYq8TvUtovb9hGOuZ6X/kbSMNGDRNh1FS69WgtDYq+k4OHdsu3hYekeZeu0jS7tXRtnSN7v10myxIfQssWzpN5S9ZLeqbscYseMBBhe/fulW+//bb0JAENVS1H6IEw7bUOGjRIevfubUYj+ENUh1npbH9V0Vqyli3qzMGtsmrRAlm0pkgO6tPfs0WK9mZJ8+6DZMjAHtKikY3jpl3lqIJjpFuiV90ssa10YOz+PXIoO1fym7WUnOxDktWqnzmz7dhBBXJku+TljkxDAAMZQsNSSwv69V97w15JQkcEefVfLT9UxwtqDfNwh2PtkW+WLZd1m7fL9q2bZP2W3WK+9+7+WhbPWyhrdyd6yA2yJNt2jBvk5JoDY01zE9uzGknjBrtkfeJ33rQ7W1p07i7t05xeWsoJGwEMZAid31YPgGmdt7Cw0Bx405KDntWlQawH46qr+2p4d+3a1bbC4gv5Q9/Lt1+tklWr18nWYA3h4AE5JI0kr0MXyc1uLO065kqj4gOye/seOXBwv+xcv0I2JD5svvnqO9nboLE0S3PnXQ8sho0ABjKE1oL9FxDQ3qEOTfNo2aGyuXTd9XoTGjWRhkmSplGTbMk6tC/RL7Y14P1bZdueg5Kd21H6Dh4g3fIaysE9O+S77zeb0kVe5z7SqVVL6ditleQU7018C7A/KINFJoA5CAekToNUyxH9+/cvF8KVqekoh7Q6dFAOFRdLcM6D3Vu3S5GO5sjpJH36HSNHNN8nm9ZslB37Sjpjxft3yqYvvxGN6G9WfCVFh5pJp15HSudmB2Xr2lWyxTzq8KRSqgkDPWAgA2kv1hvl4N1WJd2jHHTYm4608GYUrLIDtWu1LJy/TL61Tc+B79bKl+t3iexdL0vmL5Q1OxKhu2ejLF8wVz7//HOZ88Uy2bC39MHy5aJ5Mke3z1ssa7bVLi+icoFfAhjIQBp4ixYtMrMI6kiJ6ixZssTc6gE7LzS//vrr0pESye4P0nHHesKF1pD1/9f/VxcdC9ysWbOUngfKI4CBDKUXr0z1ApbePAn6PvOCUsPUG96W7P5k1qxZY2rP3kkYuujZeXpR3crmeUHlIhPA1ICB6NOg1hD25oHQReeF0AOAqLnIzAf88ssvy/nnn29bZSqbD/jWW2+Vu+++27YAxJ3OEf7WW2/ZVonK5gPWGnBwBjcX8wHrV5BQzZ07t7hBgwYVlpdeesk+orxx48YlffzEiRPtIwCguDjRgUs5JxI99gqP7dGjh703PNSAAcARasAAkJDoBdu18NADBgBHCGAAcIQABgBHqAEDgCP0gAHAEQIYABwhgAHETnG4JwBXihowADhCDxgAHCGAAcARAhgAHKEGDACO0AMGAEcIYABwhAAGAEcIYACxw4kYARyEAxA3kQngqHwiAYgnrogBADFCAAOAI9SAAcAResAA4AgBDACOEMAA4Ag1YACxw4kYAfSAAcQNAQwAjhDAAOAINWAAcIQeMAA4QgADgCMEMAA4Qg0YAByhBwwgdjgRI4AABhA3BDAAJMT6ihjUgAHEDT1gAHCEAAYARwhgAHCEAAYARzgIBwCO0AMGEDuciBFAAAOIGwIYAByhBgwAjtADBgBHCGAAcIQABgBHqAEDgCP0gAHEDuOAAwhgAHHjNID9n0IEMACXYjchu/8XpgYMIG4oQQCAIwQwADhCAAOAI5EJYGrAAOKGHjAAOEIAA4gdTsQIIIABxA01YABwhB4wADhCAAOAIwQwADhCAAOAIxyEAwBH6AEDgCMEMIDY4USMAAIYQNxQAwaAhNhdEcOPHjCAuCGAAcCRSAVwVArjABCGSAUwvWAAcRKZAFYciAMQJ5EKYHrAAOKEAAYQO5yIkQQBDCBOqAEDgCP0gAHAEQIYABwhgAHAEWrAAOAIPWAAcIQABgBHCGAAscOJGEkQwADiJFIB7GJGegBQsb4ihiKAAcQJAQwAjhDAAOAIAQwAjhDAAOBIpAIYAOKEHjCA2OFEjCQIYABxQgADgCMEMAA4QgADgCMEMAA4QgADgCMEMAA4QgADgCMEMIDY4USMJAhgAHFCAAOAIwQwADhCAAOAIwQwADhCAAOAIwQwADhCAAOAIwQwgNjhRIwkCGAAcUIAA4AjBDAAOEIAA4AjBDAAOEIAA4AjkQpgAIiTyASw9n7pAQOIk0gFMACEgRMxAghgAHFDAANAgosMIoABwBECGAAcIYABwBECGAAcIYABwBECGAAcIYABxA4nYgQQwADihgCGU0VFRea1d7EArhHAcEZf85YtW9pW+AhiuEYAwwn/6713715Tkwtz2bZtm/3f2ffgDgGM0HXv3t2ulRwMady4sW2FJz8/3/zfnpEjR9o1IDwEMEL31VdfmVt/ALriPYeZM2eaWyBMBDBCdfLJJ9u16Jk8ebJdA8JBACNUs2fPNrdR6P16vOdy++23m1sgLAQwQjN9+nS7Fl3z5s2za6jPotIBIICRNvoaJlsaNmxo7r/22mvNbZR6vx7vOQ0ZMsTcJvs9vAVIFwIYde7gwYPSokUL24q+0047za4hTlxkEAGMtNPepLd4duzYYdeq7l26XDzvv/++XUv+uwDpQgAj7bxAO/300+2WzKWjNoIBDaRLZAIY9c+7775r10pC2d+bjPLi543aAOoCPWCkTVVBdujQIbsWfcHnXtXvBdQGAYy0e+WVV8q9npkYWv7nrL+Ld/YekE4EMNIqLy9PLrzwQrM+evTojO4x6nM/6aSTzLrOX9GuXTuzjswXlf2SAEba6Gu4a9cu2xJ59tlnZfHixbaVeT766CP58MMPbUtk8+bN7KdIKwIYaeF//c466yy7JlJQUGDua968ud0SfTk5OeY5e71fddNNN9k19lWkDwGMWsvKKtuN9KvdP/7xD3O7f/9+u1Vk586d5jXW5c0337Rbo2PatGmlz2/fvn12a8nvo8sf/vCHcl9bXUyhifqHAEatecHkDyilpyB7AXbbbbfZrSLnnntupF5vfS5ar/borGje8w7ytvk/XIDDRQCjVlJ93aZMmVIh1KLwmvufg/f8xo0bZ7dUjX0WtUUAI21SOfPtkUcesWslXL7uwf/7888/t2uVGzRokF0Dao8AxmHzz++g9Mw3fR2rWsaOHWseu2bNGnOrkj2uuiUo2WOqWzyffvqpuR02bFjSx/mXL774wjzW8/3339s1oOYIYBy2559/3q6VfH1PdcazjRs3mnG1/nJETfn3l9rsO/ochg8fLvPnz7dbqnbEEUeUe96vv/66XQNqjgDGYduzZ49dK1FUVGTCqbqlQ4cO9l+U1V1rsnj7it56623atEn62OoWz8CBA5PeH1zWrl1r/0UJvaIzMo++llFAACPj6LwS/mFgHTt2NCdJAJmGAEZG0p5n27ZtTd12w4YNditw+FxkEAGMtNDXr7Il1WFdNVVYWCj//Oc/bSu9Lr744qS/i7cA6UAAo85NnTo1o15ffa4vvfSSbQF1hwBGWvgPavgPWkXlYMfhqOz3yOTfCdFCAKPOBQMs6jLt+SJzEcBIOz04Vt94l9YH0okARtp4vcYtW7aY1zO4ZIpkz10vra/oGSOdCGCklQbUiBEjbKtMstnD9MoZwaALe0km2eWHLrjgAsK3HonKa0kAI+1mzZpldnD/EvwKr6+3XjvONX0emzZtsq0S3bp1q/D8X375ZXsvkD4EMELnf62DQRfm4s0BrGfSrVixwqwDYSKAkRb6+t133322Vblg+Lr0zDPPyPvvv2/WjzrqKJkzZ45Zr8p1113Hvoq0iUwAI/Pde++9JpyqWvyS3R/2MnLkSPtsRIYOHZr0Mf5FQxtIF3rASAvtzaY6HWUm69q1q/OeO+oPAhhpk8p0lJ5k97lcPMnu8y9ff/21fSRQewQwADhCAOOwXX311XYtNc2aNTO3UX6t+/TpY9dSc/7559s1oOYIYBy21q1b27WS16+6xbt+mk6oHjVaXlArV65M+tyDiyc/P9+uIZN4r7drBDBqRXdk70Kb1dHXOCo7fjI1eW4PPfRQpH8XZAYCGLWm8/1qGFW3RLHnG5TseSdbbr/9dvsvUF+4yCACGAAcIYABwBECGAAcIYABwBECGAAcIYABwBECGEDs6FDCKCCAAcARAhgAHCGAAcARAhgAHCGAAcARAhgAHCGAAcARAhgAHCGAAcQOJ2IEEMAA4oYABoAEFxkUmQAGgLihBwwAjhDAAOAIAYy006sf1+UVkPVne1cn9q8DmYYARtrt379fhg4dWmehePrpp5ufr4477jgZPHgwAYyMRAAj7fbt2ycNGza0rfQ7cOCACXl17bXXyk9+8hP2H2QkAhh1QksD3msaLBEEe6vB+/yLX3Cb/vwxY8bIpEmTTDv47/yPDfI/DvETldeeAEba+XfugwcPmtu77rpLTjrpJLnyyisr7Pwa1g8++KDpyU6dOlW2b98uN998c+njtMd7++23y/nnny//+Mc/ytV9P/74Y/nLX/5iHvdf//Vfcvfdd8sVV1wht9xyi/l3ft9//71cd911cuGFF8q8efPkoYceMreAKwQw6tyJJ55ogjMvL08WLVpk6rbLli0zQbpr1y5z/9/+9jdZv369PP/883LaaafJJ598YvaJBQsWmPvfe+89Wbdunfz617+WPXv2mPt0mTBhgkyZMsWsT58+XWbMmCGLFy+WWbNmyQknnFD6AfDkk0/KiBEj5J///KesXbtWfvrTn8oLL7xggh9whQBGnRo1apSpCX/++efy9ttvm9uWLVvKJZdcIllZWXLKKaeYQNXtn376qVn08V4P91//9V+lZ8+e8n//938mPD/66CPzc739xb/f6OP13+rj5syZY8L3rbfeMkH/1FNPydVXXy1z586Vzz77TGbOnGkez34Hlwhg1BktAWzdulV++MMfSnZ2tnmNddEg1oN0eiBNQ9jrheq6Lto7bdy4sQlIDdGnn37atD25ubl2rWItT8NWf7b+HP2/du/eLdu2bTP3jR071mxXLVq0MGHNfgeXCGDUGQ3Cpk2byuzZs0vrsRqY48aNKw1KbWvd1xvVoF588UXZu3evCctGjRrJX//619Leqi47duwoDV7/fuMFuMf7Nxq2+n9pacKj9zVp0sS2ytPQ10Wfo9LHev8fkE4EMOqMhpbWbvVW677Tpk2TM844wwTybbfdZgLuueeeMz1Urc8+8sgjMmTIENMzzcnJMfvEmWeeKU888YScc8458rvf/c6M+Q0eXEtFhw4d5JprrjHD1rSOrPVhL2D15w0YMEAuvvhi81xHjx4txx57rAlzff56n/8DAkgXAhhp16xZM9OD1NdUg/TDDz80vc3JkyfLd999J6+88ooJQ3XMMcfIu+++ax77zDPPmH97//33mxELGow6xOzhhx82B+g0rDt37iwnn3yydOnSxYSlBnbXrl3Nz+rXr5/Zrj9L79Pyg27T3u+rr75qQl8P6ukBP92uj9HSht7v9caVBq/23DWgvV61VxIB0iqxU4Vq7ty5xYk3SIXl0ksvtY8oL/F1NenjJ06caB+BKEqEl10ro9uSbfdUd18i1Ms9JtnjK/sZQ4cOLU70vosToW7aidAvTvTKi1etWmXayvu3eptsHdF2/vnnp5wTS5YsqfDYgoICe2946AGjTiR7PXVbVa9zdfdpT9T/mGSPr+xn6BjhwsJCGTZsmOk133HHHaYM0atXL/uIsn+rt8nWUX8kss+uuUUAIxa01KHD05599lkz6kKHtWlJBHCJAEYseD1ZPYink/nosDit+wIeFxlEACM2vBBmX0NUEMAA4AgBDACONNChEHY9FDr7lA5yD9Lz9HUylaDx48ebM6WC9Cj2Aw88YFtu6J/O/+fTyWL0pAIdAwvUJ17pplWrVtKtWzez3+uolCi54IIL5LXXXrOtEpXlxJIlS6SgoMC2Smhbx4mHKTIBrAPz9UypoKgGsP7ZDh06ZGbv0mkNvYH6upOG/CcF6pz3DdULYp1A6Ve/+pX8y7/8S+k8H65lYgBrWISqshMxrr32WvuI8qJ2IoY3KH/fvn1m4PaQIUOKBw0aVJwIYrNdB/p7g/dZWOrboifDPPHEE2afHzx4cPHAgQNLT25xrSYnYixevLjCY/v372/vDQ814MOgp8n+4Ac/MKfX6kQx2qu/7LLLTOkh8Tc18wawsAQX3T8SIVb6TSkTFy07XH/99Waff/TRR83MdMcff3zpvBqZQl+DKIhMCUInSdG5AIKiVoLQiWL0yg66M+rctXq7cuVKufzyy83cBd6OCgR5kwwpnWIz0Ys065lKo0MXnWhJP1z0RBedvc6VmpQgdGa8RI/Xtkq4KEHQA64B/ZS/8cYbzbq+0Pqcb731Vrn00ktLJ24hfFEZ7ziBLnppJN2XvB5xJtJ9Xff5P/7xj2byIpfHZDIVAVxD2oPXnU6nN9RCvneFBqAmNHT1skvz58+3WzLX0KFDTVnu9ddft1uQKgK4BnQqRQ3fe++919xeddVV9h6g5nT0gPaEM52+F/QiqPqhorVupI4AroE1a9aYOq8egNPnm6lfHREdug9l+n6k74Wzzz7b3O7cuZP3RQ0QwDWgO5ZO4OI9V/3kB2pDa8CZsO9XRd8X2jHRHr3K9N8nTARwDXTv3t28YbRupzucN+oBOFz1Yf/R32HWrFnm/dC8eXO7FakggGugbdu25nn+/Oc/Nz3hKVOmmEAGDld9GDmgPWC9dJT2gL1eMFJDANeAlhw6depkDjRs377d1IK1zdwPqAndj3R/1+vf6UVHM53OgaJXntbxwJnwPlZRqVMTwDWkF5TUwD311FPNp/0bb7whEydONC+o9obpESMZ3T/8+4iOH//ggw/MtkzZ94O83+fCCy80v8Pvf/97ew9SFZkz4W6++eakL2AUJ+PRK/RedNFFpif81ltvSbt27cyOqO2ioiL7KKCMvs100Z6id8n9TD2I60XGxo0bS0c/zJw503n9tyZnwi1atEgGDBhgWyX0zLgvvvjCtkKiARymyibjueWWW+wjyovqVZELCwvNRDx6td3hw4cXr1ixwkxWovSWhaW+LomQMpPx6FWldf/fuXOnmaTHtZpMxrNw4cIKj00Esr03PJHpAetA7ocffti2ykR9OsqxY8eaCzx6bT04F/KfFKhziYAyt/otz1v/yU9+Ivfcc4/Z76PQm8/EHnBkAlhrYsmCNuoTsuvO6IXvO++8I1999ZVZB+oTL3R79uwpZ5xxRum+rwjgWtAADlNlJYjbbrvNPqK8qJYgkknsiHYNqN+iuK9nYgmCURBpVB9+ByAV7OvpQQADgCMEMIDYSXz7t2tuEcAA4AgBDACOEMAA4AgBDACOEMAA4AgBDACOEMAA4AgBDCB2GAcMADFHDxgAElxkEAEMAI4QwADgCAEMAI5wEA4AHKEHDACOEMAA4AgBDCB2OBEjgAAGEDcEMAA4QgADgCMEMAA4QgADgCMEMAA4QgADgCMEMAA4QgADiB1OxAgggAHEDQEMAAkuMogABgBHCGAAcIQABgBHCGAAcIQABgBHIhPAABA39IABxE6yEzGKiorsWngIYABIyM/Pt2vhIYABIMFFBhHAAGKnZcuWds0tAhhA7Gzbts2ulaEHDAAxQgADiB2mowwggAG4RAkCAGKEAAaABHrAABACasABBDAAl+gBA0CMEMAAYidZCYIeMADECAEMAI4QwADgCAEMIHaoAQcQwADihgAGgAR6wAAQAs6ECyCAAbhEDxgAYoQABgBHCGAAscMwNACIOXrAAJAQ6x4wAQwgLAxDCyCAAbhEDxgAYoQABoAEesAAEAJqwAEEMACX6AEDQIwQwABihzPhAghgAHFDAANAAj1gAIgRAhhA7FADDiCAAcQNAQwACfSAASAEnAkXQAADiBsCGAASKEEAQIwQwABih2FoAQQwgLghgAEggR4wAISAYWgBBDCAuIlMAANA3NADBoAEasAAEAJqwAEEMACX6AEDQIwQwABihzPhAghgAHFDAANAAj1gAAgBoyACCGAAcUMAA0ACJQgAiBECGEDsMAwtgAAGEDcEMAAk0AMGgBAwDC2AAAbgEj1gAIgRAhgAEugBA0AIqAEHEMAAXKIHDAAxQgADiB3OhAsggAHEDQEMAAmx7gEDQNzQAwYQOwxDCyCAAbgU6xIEAQwgbghgALHDMLQAAhhA3BDAAJBADxgAYoQABhA7DEMLIIABxA0BDAAJ1IABIASUIAIIYAAu0QMGgBghgAEggR4wAISAGnAAAQzAJXrAABAjBDCA2KEEEUAAA3CJEgQAxAgBDAAJ9IABIATUgAMIYAAu0QMGgBghgAHETrISRKx7wAAQN/SAASCBGjAAxAgBDCB2qAEHEMAA4oYABoAEesAAEALOhAsggAG4RA8YAGKEAAaABHrAABACasA+Gr4EMIC4iUwAA4BLsS1BEMAAwkQJwocABuAaPWAAiBECGEDsUILwIYABxBEBDAAJ1IABIEYIYACxw4TsPgQwgDgigAEggR4wAISAYWg+BDAA12LbAwaAOKIHDAAJ1IABIATUgH0IYABxRAADQAIlCAAIASUIHwIYgGv0gAEgRghgAEigBwwAIaAG7EMAA3CNHjAAxAgBDCB2mJDdhwAGEEcEMAAk0AMGgBghgAHEDjVgHwIYQBwRwACQQA8YAELAmXA+BDCAOCKAASCBEgQAxAgBDCB2GIbmQwADiCMCGAAciUQAA0CYGIbmQw8YgGvUgAEgRghgAEigBwwAIaAG7EMAA3CNHjAAxAgBDCB2OBPOhwAGEEeRCOCioiK7BgBuxKoH7P8K0LJlS7sGAPERiR4wAISJGjAAxBwBDACOEMAAYocSBADEHAEMAAmx6AHv27fPrtXOt99+a9cAQGTHjh12TaRZs2bSu3dvycnJsVvK0+2DBw+Wo48+2jxObd261dyGKfQAbty4sV2rnfbt29s1ABBp3ry5XRPZtWuXrFy5Uvbu3Wu3lLdnzx6ZN2+eLFu2zDxOtW7d2tyGiRIEADhCAAOInajMB9wg8URCfSba7T/22GPNH8AremstZs6cOWY9aPz48TJ16lTbKpOfny+tWrWyrcPTpUsX+eabb2wLgGvt2rWTwsJC26qZzZs3y86dO22rxB133CEPPPCAbZWZNm2a/PSnP7WtEnfeeaf8+te/tq2QaACHae7cucWJ4NXQN7e6DBkyxN5b0bhx40ofl+6lT58+SbezsLC4Wfr37590++EuEydOtElS3jPPPFPhsb/85S/tveGJdAli3bp1MmPGDNtKv9WrV9s1AFGQ7vfk4famwxLpAH7kkUfMUcq6cvDgQbsGIAp2795t19JDSxrJJDqfds2tSAdwXQ81y87OtmsAoiAvL8+uxUOkA3jChAnys5/9zLZKzlTJyspK26LjBpNtD3PR3ynuC+BJZ89U31/79++3rfKi0gOO/CgIPap5+eWXy9KlS+Wxxx6TUaNG2XuA9Nm2bZtZXNq4caM5QcCVAwcOmOMuLjVt2tS812uroKBAzjvvPGnYsKHdUt7TTz8t119/vW2VcDEKIvIBDADp9tRTT5X7dq1cBDAnYgCAIwQwgNgJ+Yt/pQhgAHCEAAYQO/SAASDmCGAAsUMPGABijgAGEDv0gAEg5ghgAHCEAAYQO5QgACDmCGAAsUMPGABijgAGEDv0gAEg5ghgALFDDxgAYo4ABhA79IABIOYIYABIKCoqsmvh4arIMaeXQddLka9Zs8bcrl271mzftWuXbN682az76eP18ump0p+bKv3/du7caVvp17ZtW8nLy7Ot1HTs2FGaNGliW6np2rVrpZdDV927d5f8/Hzzs3v37m2Wli1b2nsRhocffljGjRtnWyVuu+02mTx5sm2FgwCOoc8++0z+/Oc/y+zZs2XhwoUmVOGWhvCZZ54po0ePNu8H1K3p06ebv7XfDTfcII899phthYMSRIxoz/X000+X4cOHy9SpU00QE77RsHLlSnn00UdN5+Smm26SAwcO2HtQF/QbXpCL9wI94JjQN7T+3bXHWxn9qq1fi/XrsPeV2NtWHX28fq1ORU5OTko/09OjRw+7lpqalD2UvvE2bdpkW6nReuG2bdtsq2r6t9fyjkfXdVtVJZeJEyfK/fffb1tIt2eeeUb+7d/+zbZKXHrppeabYZgI4Jh44YUX5PLLL7etksC86KKL5JRTTpH+/fubkKMOGT4NYf0m8r//+7/y+OOPl4a6fvBt3769yloyDp8G7ZVXXmlbJc477zx55ZVXbCsclCBiwt8D0zf1O++8I08++aTZCfUDkPB1Qw8Mau1Xe7v+N7/2yrWzgrrRtGlTu1bGRQmCAI4JfZN79OvvD37wAxk5cqTcd9998sEHH1ALdkR7vPr319fh6quvtltL1LT0gtQlG9lCDRh1SksQWoqojL7hvaVXr15mOJXSHrO3HqwJp1ojrq+C9V1/27+uQat1471795YO+dMDb5UN6dPy0IsvvmhbSDf90NMOiN8JJ5wgH330kW2FgwCOGR39MGnSpJQPINVUdQEdbGu4d+nSxbZEsrOzS8Ne+cNfBdtBVQWi0vY333xjWyIHDx6s9vFVteuCHgzS8lBNxywjdZ9++qmceOKJtlXCRQ4RwDGkX7Vee+0108PSnkBdhTFSp+OAR40aZcoQ2hND3Zo/f74MGTLEtkocffTRsmTJEtsKR+gBrL2HI444ggCOkKVLl5oPxmXLlpkz4fQ10q/GGsx13duLA+3JemfhebcauFrm0dthw4aZ7QjP8uXL5ZhjjrGtEh06dJANGzbYVjhCD2B9Y3fu3JkAziDaYw7WKoPbkrX9Y2u19lnd46tq11Z1pYxkpQ09Zdgv2A4eJPO3dVQJI0ui6+uvv67wep5xxhkyY8YM2wpH6AGstObn/6TRHffLL7+0LaCi6gK6prVioHHjxqam77nqqqvkP//zP20rHE4CWIdAffLJJ7YlcuSRR8qKFStsCwDqnp6RuX//ftsSGT9+vDz00EO2FQ4n44CDw5b0bKB9+/bZFgDUPR1x49e+fXu7Fh4nATxw4EC7VkLHR65fv962AKDuaZnKT0sSYXMSwIMGDbJrZdJ5wAUAqnPo0CG7VuKkk06ya+FxEsA//vGPK3z6cN47gDD5D3/pcajjjjvOtsLjJID1bCgd++i3YMECuwYAdev999+X3bt325ZUOCkjLE4CWOlZP36vvvqqXQOAuvXxxx/btRLBeSHC4iyAgz1grQHrGVkAUNf++te/2jWR3NxcOeecc2wrXM4C+OSTT5YBAwbYVgmdlwAA6tJ7770nixcvti2RTp06lZsQKkzOArhVq1Zy2mmn2VaJL774wq4BQN3QuZf9IyDGjBlj18LnLIBVcDq4d999164BQPr9/ve/L1f/LSgokLFjx9pW+JwG8MUXX1yu679q1SpZtGiRbQFA+ui8DxrA/t7vzTffbNfccBrA6vrrr7drJe655x67BgDpowfa9CokHh37e8MNN9iWG04m4wnSafv0CrBKT9DQArnOkwoA6fCLX/yi3EQ7WVlZ5srIl1xyid3ihvMesLrgggvsWsnXBJ0Wzn+UEgAO1x/+8Af53e9+Z1sl7rzzTufhqyLRA9arMOiZKP5L4+hVfN94440KpywDQCp27NghDzzwgPzmN78pd9qxXhLts88+sy23ItED1pnp9UKEfm+//bbZNmvWLLsFAFJ34403yoMPPlgufHUmxpdfftm23ItED1jpnMB9+/aVLVu22C0ldO7gP/3pTxVOXQaAZPSErn//93+vcLpx06ZN5X/+538qnIXrUiR6wEovSnjXXXfZVhk9Rfn0008352pzphyAyuiMijrSQbMiGL7t2rWTzz//PFLhqyLTA/ace+658ve//922KhoxYoS5dPd5553HlWRRa3rQN51Xftaf5b/OWG3ot8KdO3faVup0tsHgVWeS0WvmVXeMJaoXF9XjRXPnzjUX89XbTz/91JxHkIxmyuTJk81VqKMmcgGsO9xZZ50ls2fPtluS0x3n1FNPNSMoNJT79+9v70mvyt4E2jPXC0MG1fQNqD87WHY5XAcPHqx3YZKM/hz9eYgGfS+mcgFU/VDQD4eq6MUa9Ao5QRq4univfapXzb7iiitk2rRpkT2YH7kAVvpHTiWE/fSF1asr65l1zZs3N5e8z8/Pr/BC+Xs8OvJCPz3V1q1bk77wAMKj5cZ33nnHtg6fdsgmTZpkvilHWSQDWGloTp8+3SzLly+3W9OrRYsWpSeAAHCvZ8+esnr1atuqOT277T/+4z/kyiuvtFuiLbIB7FmzZo08++yz8sILL5Q7jTAd8vLy0va1GEDtHX300bJs2TLbSo1++9VypJ5YocGbSecORD6A/RYuXGjKEtoj1snbtbywYcMG04vVdb20vdZBk9Vmk9Ejo4WFhbZVOxrm6TgomM5aKZBp+vTpIytWrLCt5Dp06CDHH3+8DB8+3Nzqou+/TJRRAZwqDWANMi1jBMPMf0RXf3WtFSudFT94WWr9JE32wuq2TPqUTYX+ndJ1wK0m9MMzeHXaMLj6f/1ne6Ii3Qf97y3t3eqi71t9f+r7VEuHOpdDfVAvAxgAMkH9+BgBgAxEAAOAIwQwADhCAAOAIwQwADhCAAOAEyL/D9tSQ3RLVJoJAAAAAElFTkSuQmCC;" vertex="1" parent="WIyWlLk6GJQsqaUBKTNV-1">
          <mxGeometry x="380.13" y="80" width="109.22" height="193" as="geometry" />
        </mxCell>
        <mxCell id="OF0bnibXMQKsjCnrB5dy-2" value="" style="shape=image;verticalLabelPosition=bottom;labelBackgroundColor=default;verticalAlign=top;aspect=fixed;imageAspect=0;image=data:image/png,iVBORw0KGgoAAAANSUhEUgAAAWQAAAJ9CAYAAAACKgjuAAAAAXNSR0IArs4c6QAAAARnQU1BAACxjwv8YQUAAAAJcEhZcwAAEnQAABJ0Ad5mH3gAAEVjSURBVHhe7d0JfBT1+cfxJ+SCECBAIBDCfd/IYa1/D1SqKB6gVilaVOpRFUURFa33icUq0npUrVq8WkWhCNVaRPCEihxy33c4hXCGkIT97zP722Sz2Zzs7kwyn/frNa+d3+7k3v3m2Wd+MxPj8RIAgO1qmFsAgM0IZABwCAIZAByCQAYAhyCQAcAhCGQAcAgCGQAcgkAGAIcgkAHAIQhkAHAIAhkAHIJABgCHIJABwCEIZABwCAIZAByiWp0POTs7u8hSkho1akhSUpIZVX/5+fml/j6qu1q1aklsbKwZIdjhw4fF7hjIy8uTuLg4MxJJTEy0/m661K5d29xb/VXJQD506JBMnTpVpk2bJlu3bpUdO3bIxo0bzaNla9Cggezdu9eMANita9eusmzZMjMqLiMjw1ouuOACGTp0qLRr1848Ur1UmUBeuHChzJ49W+bMmWPdHjhwwDxScY0bN5Zdu3aZEQC7DRgwQGbOnGlGZdNA1mC+9NJLpVevXubeqs/xgbxnzx4ZPXq0TJ48WY4ePWruPTGdO3eWFStWmBEAu6Wnp0tmZqYZVcwVV1whv/nNb+SSSy4x91Rdjg5kDeFbbrnFCuWK0P5T9+7dJTk52dxT1C9+8Qur0i4v7bHt27fPjMRqdxw5csSMAJwobUX8+9//NqPKufbaa+X++++v0u0MRwaytiRee+01ef/99809JdPQPe2006y3Lb1795ZOnTpZS+AOgkjLycmxdpppBe9fgseh7tOxfmxpj5c21sXhb3CAcrnwwgtl+vTpZlR5NWvWlDFjxshDDz0U1QwIF8cFsoaxvgUprSr294/OPvtsK4yr4i8+HHSHpu6dVnqrYz/d8Rn4O9R1rfT9tm3bVqGP1fuqipSUFGspj9TU1BLfSQWr6LblnR2QlpZmBYmblbSjfdOmTdaiO+39S3lcc801ctddd0m3bt3MPVWDowL5gw8+sH6JGhbB9AmrITxixAgrhGGf0v4RVERFgrMi26L60neFOsPqvffek88++6zgeRjKwIEDrTw555xzzD3O55hAzsrKkr59+8r69evNPT5a/d5xxx3Wjr0mTZqYewG4nU53/cc//iHPPfdciUWBvlP5+OOPq0wR54hAXr16tdx+++3y+eefm3t8tC/8xhtvVKtpLQDCa9GiRfLyyy9b+51C6dChg4wfP14uuugic49zxT7iZdZt84c//MFqVwS6/PLLrbcmLVq0MPcAQHH6zlnbEw0bNpQNGzbIzz//bB7x0fH27dutfrJOr3My2yvkV155xZraFqh///5WtezWnXUAKmfp0qXWzv5QkwK0bTFr1ixH54qtJxfShvzEiRPNyEcb8BrShDGAitIq+C9/+UvIucjffPON3HvvvXL8+HFzj/PYGshPPfWUrFy50ox8br31VqvnAwCVodNmx44da00nDPb8889bO/mcyrZAnjdvnrz11ltm5KPHpQ8ePNiMAKBydHrs448/bkZFvf766yFbGk5gWyDrHMLgSd6EMYBwuf7660NOd9P9UzqP2YlsCWSd3P3iiy+akY/uJdUKGQDCRQ8MqVevnhkV0tMyrFu3zoycw5ZA1t5x8FuGU0891VUnjQcQeXoGuOHDh5tRIW2ZvvPOO2bkHFEPZN2JF9xU16NpaFcAiIRHH3005DlI9Oxyx44dMyNniHog61E1y5cvNyMfnXdc1U4CAqBq0HOg6IFmwX744Qf53//+Z0bOEPVADnXO0x49epg1AAi/YcOGmbWi9EARJ4lqIG/ZskW+/PJLMyqkZ3EDgEjp2bNnyHPifPfdd2bNGaIayN9//32xU2vqGd6q6wULAThDo0aNrJPgB9Oj9xYvXmxG9otqIIe6jp1e3QMAIi1Ua1QvxebaQA71g3OYNIBo6Nq1q9SoUTzyDh48aNbsF9VADj75vKJCBhANerX5Ll26mFEhJx1GHdXTbzZt2lR27txpRj4LFizgBPQOFnh9Pb0qg87nDMellFq1amXWqh69uo0uwfQIVL2KReDlpqryz1kdXX311cUOm7755puLHTlsl6gFsgaxBnIwvV8b7tWRBphetFVPM6o7Lk855RTHnVZUv8f58+db55HdvHlzwYUkNXCcegIWv8DgiwQNVw3ZE+X/PjWcdcnIyLBadfp8YId2dE2YMMG6HFygyy67TD788EMzspkGcjRs377dExMTU2SpXbu2Jycnx2xRfXz66aee7t27F/t5f/WrX3n27dtntrJHdna2Z8qUKZ7f/OY3Hu8/wmLfI0t0F2+R4vntb3/r+e9//+vJzc01fyVEygsvvFDsb9CzZ0/zqP2i1kPWaiOYnvQjISHBjKqHcePGyQUXXGBVnMFmzpxpnbMj1NvdaNATdzdu3Ng6iZNeHNLpFbAb6OtCz6lw7rnnWlWzPkcQOZF8RxUOUWtZ6CHTvXv3NiMfbbIvW7bMjKq+uXPnyhlnnFHk0uTac61Zs2aR8NOrpIwcOdKMIk/fdl988cWlvtj1umT69tn/trpNmzbW/YE90MD10oTjrb6/H3ui9HN434WZUdmaNWsWsq2k51sJdT4E/dsGXw09sO+u9HvQNpDu1NZb/Wdd0s+mX/ull16yTh2J8Js2bVqx8+Z43806Z+qbVSdHwcKFC4u9VWjdurV5tHoYMmRIwc9Wp04dz2uvveY5ePCg9Vb09NNPL3hMWxfR9PTTTxd8bf/Sr18/zyOPPGK9Vba7jeJG2sLT1tFtt93mad68eZG/jY5pX0TGnDlzivyudenRo4d51H5RnfYWzBtaZq160J1jfg899JBV5WhVpVWPHpHoF47KryIyMzPNmq8S1pM76UlVHn74YRkwYIDj38ZVR/p30EpNnyf33HNPkb+BPj/samtVd06/ir2tgezkiw1WlL6AdMaCX/B8R708uV/Hjh3NWnQEHnyjL/bJkydbb6sRPdrGWrt2rTXrxn+ldW3haU//9ttvLxLAerEGbZEg/Pbv32/WCnkLU7NmP3rIYdSgQYOCF9YDDzwgjz32mLU+ffp0a0eav7es/ePgq21Hkv6j0H8QgSGsvU895an2jXW9PIJ7oyidPhd0qUg/XN+xTJo0qVhfGuHx008/FTvuQV8Her8jaCBHQ6gesrdSNI9WDzfccEORn097gTqtKfA+Xb7++mvzEdGj/ez4+Phi3wuLMxbdx6B/I3rHkbV48eJiv3tvIJtH7UfLIoxuvPHGInvotTINroy0Og514cVI03627mHWgxFgP31nokeN6YyK1atXy1dffWX9jZx24FB14w1gs+ZMtrYsdGqV9tWqk6lTp1r9weAg1raAtjDuuOMO2190OvVK/x46/UrfqpW3DaE7KOltVkzLli2t+fbBR+oRvPbQ53zwWd/0pENLliwxI3vZGsj6ZA3c2VVdaK9Yd95o8GnYaY9Kq2JmMwD20n1WOu84kO5fCXUglx1sDeTmzZvLpk2bzAgAIkunfAZfv9NJgUwPGQAcwtZAzs/PN2sAEHmhdupFqUlQLlTIAFzD6bMsCGQArkEgl4KWBYBoomVRCipkANFEhVwKAhmA3aiQDVoWAKKJCrkUVMgAoolALgWBDCCa2KlXCloWAKKJCrkUWiE76b8TANjJ1kDWMKZtASBaaFmUgUAGEC20LMpAHxlAtBDIZaBCBhAtBHIZCGQA0UIgl4GWBQA7sVMvABUygGihQi4DgQwgWgjkMtCyABAtoQKZlkWAkipkvZT+s88+KzfeeKOsXbvW3AsAlUeFXIaSAnn69Olyzz33yOuvv27dAkAkOKlCjvF+M1H5bhYtWiS9e/c2o0KbNm2S5s2bm1Gh66+/Xt544w1rvVmzZnLXXXdZ6+GQnp4umZmZZgTAbnFxcbJ161Yzqrx69epJv379ZMCAAeaeonbu3ClNmzY1I582bdo45l247YG8YcMGadmypRn5aKti7NixEdvh1759e1mzZo0ZAbBbuIukoUOHynvvvWdGhXbt2iVNmjQxIx8nBbIjWxb6i2T2BYDKmjlzplkrip16ZQg1y2LYsGHWW5hI0f+SAJxjz549Zi08evbsadaKYqdeGUJVwmPGjJEbbrjBjMKvdu3aZg2AE2jvN5z69u1r1qoWx86ySExMNGvht3v3brMGwAkOHjxo1iLL6S0L23fqLVmyRLp27WpGhUaPHi0TJkwwo0LakG/btq0ZVY7+UZz0RwDc7ujRo1KzZk0zqpiVK1fKzz//bEY+I0aMsKbMBtu7d6+kpqaakU+rVq1k/fr1ZmQv2wN58eLF0r17dzMqVFIgX3PNNTJy5EgzAuB2d999t8yePduMfO699155+umnzajQvn37pGHDhmbko7O8dLaXE0StZeHfeVe3bl2rytW5xRkZGSUeOp2UlGRNhdFtGzRoYH2cys7Otm4B2EOPG+jQoUOx+bx2yc3NNWtiVdmaGfHx8eaeomJjY63c8WeLtkadNKMr6j3kAwcOyI4dO2Tbtm3WRPCSfhlHjhyx5iXqtvo2Qz8OgK/lpgVLuPezaIjVqFFyJOhbfX0327hxY6lTp44Vatpu1ILJKbT1oZkRGNKBNG80d/zZkpOTYx5xhqgFsv5nCqWi/51q1apl1gD3SE5Ott5ad+7cWXr16mVVqF26dLHWO3bsaFWtJxrQjRo1krS0NDMqSsNav4a+tdf9Pv5ly5Yt1vdVWpBHWknVcHnZ+b0Hs/07cdLbBcBpEhISpHXr1taO7GPHjlmV3bJly6x9MgsXLpRVq1YVzKvXgNaqtaIBExjkJc3T1VaAnvDr0KFD1k4wXbTtqO9c9euVdNxA/XY95KQuzSU+pa306N1H+vTxL72kc3rQx9RI9P7jqSnFPlNcLalTO0GcPYM4PAhkwKG0FaAhq/tZli5dKtu3b5f9+/dbweyn+1R0R5VWqitWrLDm2GsbobzVsr/yLou+w9VA1lttV+iiH1uyOKnfvINk1ImXGrFxEpO1QVatXmOdsmDNtoOS6zkueUcDXvu1MqR180Q5mu2R+m3aS6t6vmiq0bCltG7kkUM5NaV5+3bSJMG6u9qyPZA5HzIQmlajOqVr8+bNxV4n+jY9uA2o/VMNPJ3CpeFZGn9gR+zItcQ0SUtJlLzso5JvzeM6LjmHDngr6lyp37C21DiyWzbtPS5x3p8jRhKlRZt6ErPrgOTl58hu7/3JzTIkQVKlXdNacnT3UfHkHZDNR+KlUasG9odWBFEhAw6llbCGrJ/uyGvXrp11WHCPHj2s/nG3bt2sCjewZXD48OEyCx09wZa2QyImZ5usXLJEVuzM8UZxoRpNW0r9+GzZvna7HEtoIR26dZSWCalSOyFGPP5vOcv7MfFJ0rBBPanp/Z9T8PFHciUmIcUb39UXgQxUAdob1p13/ipY+8faR9bqWcNY2xTaRihN4CyKiFXGpaojrVJrSd7+bbJLC/hjm2X5wqWy8ViM9/upIbE1zffUoJbExcZLzTjv2Ht/vLm7RnKC92dNkLphPs2NtoGcgkAGqgB9nWj7Qqds6ZRQHWsVrDvV1q1bJxs3bjRblqy0WRQRExD8NZo2k7qx2bJ7y0EpejRanhz3xEtys6ZSMyZO0holSfzxXDmaky+eGjWlfov63oCuLS3q1pSY/GNyoPRuTIWF+zwaJ8L2QKaHDJRN58wGHhSl7YvAQ421yivpfBDlmUURMUnxooWu97uQDG/lm3/QVMeGr4e8Sw5kH5fYpKbStXdPyUiOk+M5B2T3/j1yOFckIaWN9OzVSRp6K+hjR3ZLYROn+qFCBqoYDWOdj6wtjLKmuGmfWPvFtsk77q1+tR7Okcz1a2TNpsDquJm0t3rIxyVz03Y5eOy49Zgn75BsX5fprZsPysbNeyXb2ivokeNH98rmDcHVdcWkpKSYNWcikIEqRmdQ6OtGj0Yrz6lo/K8x3db/jjTw1v85Ah8Ppl9Te9X6uLZHdCnXJZd2rJRFSzeKTtTLyz4kR4u0G7bJCquH7F3N3iGrlyyUBT/+KAsWr5IdZmbf8f0bZfmiBfLjjwtk4bINsv8E4yIrK8usOROBDFQxOvtCd+otX768zEDWbfXgEaXXk/MfRKL36WPaj/af6Szw8WC6nbY79DwQ2gLRRY+abdGihXX4ceDcaFQePWSgmvO/xrT48Qd44Osu1OPB9LHVq1db69oG8S/6sf77ceKokAGUi0650zaFv2Whi54kjOo4fGw/H/JHH30kQ4YMMaNCJZ0P+c4775RHHnnEjAC43VVXXSXTp083I5+SzoesPeTgs9M56XzI+hYlKhYuXOiJiYkptkyePNlsUZQ3eENuP3bsWLMFAHg83oKu3Dmxd+/eYtu2atXKPGo/esgA4BD0kAG4mrdKNmv2I5ABwCEIZABwCHrIAOAQVMgA4BAEMgA4BIEMAA5BDxmAa3iic2BypVEhA4BDEMgA4BAEMgA4BD1kAHAIKmQAcAgCGQAcgkAGAIeghwwADkGFDMA1ODCkDAQyAPjYHshO/48FoHrjiiEB6CEDgA8tCwBwCAIZAByCQAYAh6CHDAAOQYUMAA5BIANwDQ4MKQOBDAA+9JABwCGokAHAIQhkAHAIAhkAHIIeMgA4BBUyADgEgQwADkEgA3ANDgwpAz1kAPChQgbgalwxJACBDAA+BDIAOAQ9ZABwCCpkAHAIAhkAHIJABuAazEMuAz1kAPChQgYAhyCQAcAhCGQAcAh6yADgEFTIAOAQBDIAOASBDAAOQQ8ZgGtwYEgZqJABwIdAxonJOyR7tmdKZmbh8vMR/qaoOjhBfQACuYrJWiVfvfe83HbpL6VDWpLUiK8jjdKbSbNmhUtq7Vip3eQ0ufLxd+WHbUfF2W8SAeegh4wKWCOvD+klZ141Wv4yZa6s2ZVdYtge2fmtfPDQ1XJyRkPpNWaGbDpKLANloUJGBfwsm1ccNevldUR++tOF0v70P8qPhwhloDQEMirt/x77WlZv3SOH8z3W3mvfclT2bVwkU8ddKb0aFD69cuePlUGjpssO3hABJSKQUWktu/WU9s0aSlKRZ1GipLTsKZfc+w9ZmLlCPhjRQeLNIzvfGCcfrD1mRgCC2R7I9JCrscQO8uu/viVjM/x7sb+TectzzHrk5GTtsGZ77Nx/jB2KqFKokBFV+w8elMJ/wVny06Sb5bS+58ujn2dKnrk3WN76GTL2gq5yxohJsihkHzpP9iz8hzz4619Kq5RYqVm/qTXbo0lKoiS3v1z+NHuLlGufYta38sQvG0psTIw1FarkJUGaXz9Vtpb0DcOxODCkDARydZYn6/85Xv6yzf8iaCHd2qZIrBnJmsky6qZX5NsfP5NHLrxKXlsVqp2xQz55YJg88+ly+frNa+T6V5ZJkRo7L1P+c3dfadXnN/LE5LmyaX/R59ORtR/JmLPaSq87/iOZZQTo1v88J8/M3StlPyNzZevfHpF3lka+2oe7EMiIkBzZPGOMXHjdFNnnz+OeN8vQvklm4FWnoTRNMOu5s+X+J2cU2+l36LuX5L4PD5hRvDRPbyBxZqQV9rePnScXPbtYDpda+OTKqokXySV/+lFKm+hxPD+3Ai2O5bJqC/1whBc9ZIRV3qE9smreP+TBczKk9YUvyIpc84C0lbEv3io9E81QNblI7nmoV8FOv6y3b5YnZ+0PCMXNMm3cc7LKX9mm3SS3DGpaUGHvmHaHDH5iqTdujaQecvMrU2X6h3+Vx8Y8IC+8eL+cnep/iufK/LG/k78sLrmqzc8LCOS218krU6fL9OmBy3NyWV3zuNSW2jVtf/mguvFEycKFCz0xMTHFliZNmpgtirrzzjtDbj927FizBaLve8+DaVZmVXBJ81w2aaXn8HHzaQId/NbzYMe4wm3bjvV8c8C34fZ/XeNJjfF/jnhP/5dWenKsR7xyf/Q83Tng49KGez7ekmseLJS77h3PkPoxBdvFD37Xsy3PPBjk+wfTCj/fsI89B8z9BXZP81yTYh6Xnp6nFx41D8BOQ4YMKXdObN++vdi27dq1M4/aj5YFIi8+Xo7t3CX7Q70ZSj5VbvnjVeINXp91f5I7/vqT5GTNkRfGvCt7NP5U27vkias7iL/DkffDVHlxZUHpLCPfniiDMwqbGX5xba6SZ/54ptQ049yp78nMnaG+ka2yadlhsy7SpXOLgsq9wJGDsregHAfCj0BG+W1eL4sOmfWKyN0qn9x9jpz16Ldy0B+wAZpc/Ji8cGFtM8qV+fffITeOuln+tKYwcEc8P0pOqVN4Ephl330sOwrC+ka5+rR6UtIpYtpfeLsMKWg1zJAZ3wa2RYy8jbLom8IfrnWLpsUDGYgwesiotP+7f3JQjzVgefs5ufeasySjlj8mc2XVE5fJ/TNDhKG0kCueGS9nFpSxs2XSpBUFveGUoX+WR89vUjg7w1vNrvxuU8E0uZSBp0u3WmYQSpNeMvDUwp2Jq9ZtlmK749Yuka/2m3XpIqd0bRDw9YDooEJG+SXVkQYBZWPLvufKoEGDQi9X3ynj3polGzZ/KX/oVnCsnvz1pRmyPcT/4LjON8iEJwp38BWIv1BeeGaIFO1GHJf83MJYb5nRKGDmRSiNpFm7wsTetHV3sTnPmxd8KgX7+1LOkl908v93AKKHQEb5pTaSFoGzJMohLvVMGfnY5eLvGOTO+K/8eMQMioiTXqNelYfaFa1Lz335RRnWovS4LVtNSUwurd7dIT9OnyMFHeT/O1m6hsrjfdtlfcEkjQxJb3yi3xeizcOBIaUjkKu/Jn0ulDMLWsQLZdm6UFPP9CCSp+W5dUXL5y9feV8WF5s8XENi4ws7xvuyDgcc/RfKFlkf0PwuVlHv+F4+nOGf6ywy6IoBkhYqv7P3y56C0rqe1KlDUwPhRQ8ZEZe3baUsDFkVF8r69jG5JPAgEiN3/oPy+xcXBB3QkSGdTm1ZEKqbJ/9HlmSbQSg7Fsln3/m/gXg5qWtbCSz010yfKFMK8niQXDEgjf6xi8TElLQ7OPqokBFhWTL7vdek4Ojp+G7SsaV/8ppP3vp3ZcRFT8hS/168+I7Sp2ddM2tCD+gYJKOm7yhSBXc962pp70/kdePkiQ83F+sL++TJiikvFAZu/CD5VZ+AowXzFshHz30j/rM8xw8eJgNClsdA5BHIiJi8Q+tl+pj+MvjFHQUzK9JuukbOTgmoSLK+lccuuU6mFJTGaTL8nzPl249fksH1/dvtlDduuFemBZzNJ673ZTL6tIJpGTL9+nPlln8ulwNFnk55kvmfu+WyUXMKAjdlxE0yqGlh4B76+h2ZWDCfOUVG3DRIAh4GosoRgez0RjtC2zT/c5kxY0axZfKrj8utl54kafXaykV/CjjPRNpwefnes6SeP2ezfpKXhl8kTxSWxtJ33Ax5cXCGJLa5St6Ycm9hFbxzklw55E8BVx1pL0Ofvk96+Kdl5K6S14Z2ldRGreT0K0fJXXddK+e1TZXmAycUHr6tMzbuH2C+fo7s+GmaPHX/y7Ld/ynr/FJaZH8j/w7xM1nL98ulsDOySebPWxX0DwA4QdbxelFQ0qHTuuTmFj/klUOnnWi95+8DkzS+Kr7E9/WMm3/QU3j09HbPv65J9XizsWCbtOEfe4oe/bzP882D3TzezC3YpufTCz2FByznetZ9fL2nQ3zh4yUu8Rme303Z4v0In33/HelpUnBYduWXtJGfe7JCHRKOqKnIodOZmZnFtm3fvr151H62V8iKtkVVUUfqpxXt/5YtXjLOekT+veZruadPcsDRdFtk0ayfrVRT8X3HyYwXBwfNN06R/3voA3mh4IgRkcVLNgQc1BEnbYa8JvPm/11+36dBiW/34jMukj9/u0Re9Vbe/k+/8qsPC4/0OwE7p30hS0vboQhUAIGMCkiV85/6WB47O7WMJ06SpLU9Xa547B35fsNe2TTrYTm/Zc2gQ5tPkqtfuFG61Y6RpFOfkW/+e7f0SS66hSWus9zwxhtyZZr3KyadKk/cepr3sxeV0mO4vDx/p+xfN1em/PUxGTN6tIzW5YEX5OO5G2Tvpmkysl9KZJ7sm7fILiYKIVxMpRxxpbUsDh8+bLYqRMsCkXPQM3Nkw4K2Q5fH53uyzSPl8v2DnjTzsSLDPB8XOy0coqkiLYtt27YV25aWRRDmIiO69srOTf55FyLxcbElnpgIiCZaFnChJKkTeFIOwCEIZLhQqpw16nE5N7WGtcNv5KDORY7cA+xCIMOVkk8aKf/ZnS/HtkyT67tXMI7TO8nJ/nNztG0r6UVmhgCVRw8ZqKgWw2TSj3NkxvT/yo9z7peTSzsXM1ABVMhAJaR0PEMuGDRAejcLns4HVB6BDAAOQSADgEPQQwbgGh6uGFI2p/+SACAaHBHIMQ46Yz8Ad3FS/hDIAOAQBDIAOASBDAAOQSADgEMQyADgEAQyADiEIwIZAKKBA0PKgQoZAAhkAHAMAhkAHIJABgCHIJABwCEIZABwCAIZAByCQAYAhyCQAbgGB4aUA4EMAAQyADgGgQwADkEgA4BDEMgA4BAEMgA4BIEMAA5BIANwDeYhlwOBDAAEMgA4BoEMAA4R44lSU2XRokXSu3dvMyrq2LFjEhcXZ0Y+o0ePlgkTJphRoXvvvVeefvppMzpx+uPn5OSYkXPk5+dLbm6uGcGvRo0akpCQYEbhExsbK/Hx8WaEquTSSy+VqVOnmpFPSTmxefNmadWqlRn5tG/fXlatWmVG9nJEIGvw6AsiUCQDeeLEiTJq1CgzAiInOTlZUlNTzSh8UlJSrCXc9HvV7zncGjVqJElJSdKkSRMZPHiwdRsuBHIllBbIeXl5VuUTKJKB3K9fP5k/f74ZoTT6ziUjI8OMKm/r1q3W3xnhU1oo79mzRw4dOmRG9tOQ938/b7zxhlx33XXWejgQyJVQWiDr2/PgPnIkA7l169ayceNGGT9+vAwZMsS6L7hCr+q0AqlZs6YZVX3693KTSFTAdoa0vsY//fRTue2222TkyJHy5z//2Txy4qpTIGsPNSoWLlzo8YZuscVbGZstirrzzjtDbj927FizReU1bdpU/wl5vIFv7gEQad7Qs153p59+urknPLxFVblzYtOmTcW27dChg3nUfrbPsvD+Qsxa9DRs2NC6rV+/vnULIPL8O2O///5769YO3swza87kiGlv0ZaWlmbdlvTPICdrh2Rm/iyHj5s7AJwwf7tEW2lOD0a7uLJC9gdy8I5EyVsvU2/pIU3bniJn9u8lrdtcJC8vOCQ8dYAT55+9ocHMlM7QXBnI2sRXRZ8U++XrhwbLuJSJsnTnRlmzeous+WSgfPLre+W/WUQycKKys7PNmsjx4855+2lHBpXElYG8f/9+6zZ4FkLKmRPk7QfOlHRzjEq97jfJw1f/R16ekSn53vGyP/eTRO/3q9+zLn3GL5GQh5Ts+VR+36RGwXa6pN0xS/QN2/75L8h5jeO89yVI899NkS15R+Trsa3l2mkHfB+77FU5//oPJHPzh/LreoUfr4v19XI2yxePXyzdOnSQ00e8JHM2Z1PBo0ro3LmzWfNNdUVxrgxkv6Iti3rS/byzpX1SjGz7+CppVENDMF5OeWydrN+8S7SWPrwnU9re94Vs3LZNPhudJsm1a4b+BeYckp+zL5a/rd4m27zbbvtstMTsypL8Q7Pl8cFvSs+3l8nWbfPlkV2/k9v+uU/iEo/J4excX7Bm75KV89fJzsa/lg/3e8Qz7yFJv+RvsnrbDpl1e3P55p5T5KpFl8ikLz6XJ9pMkoH9bpd/76bZjaqFoyJDc3UgF/3ah2T5zFmy5ohHml38V1mhQepdFrx8ntQyW6ha9RtJk/TGUicxRpo1aSwhn1bNWkqX5CRJaZwu6enepX6yWLOcl38p77e9UW44u6M0S+8hA4efI1/OmCd1O/WTuVM+l43Z3khu3FZ6Bn5BlZQijdPTpN7Bb+Tdt3vJMxOvld7NW0mTRgkivzxL+jW0/c8IlGndunVmzXfAEYpzZSDXq1fPuj18+LB167fjk5tk/Jws8cQlS2pTb5A2PCyLZqyRPn1aS6LkSV7ucenYtoV3PVM2LS//BPu8vFyxatga8ZLgXc8zPYZ873psfJw0v+hhuW//KG91XkNiWg6Tfx3xPV7MkYOyNzdF6iRrvK+Vbz+YL0eP5UouPQtUAYEHXxXboQ6LKwN5w4YN1q0/mH2S5YxRj8rem/rLtc+9Lx+8+oBc1vt0+VufN+QPZ6fIsR2zZdrHTaV760SzvV+e5JaRiJmbllv9Y+l1kdyW86zcOe5d+WTGG/LHJ3+U31x1hjdgT5JbPt3lDWqPeDa9J5ckWR9WXIOm0q7eLHl38myZ9ewdcve8WEme9YHM3Eo/Ds534IBvP0mLFi1sfWfsZK4M5L1791q3/p17fnFthsm7/3tbrqq3TpYd7Sq3f7RavnpEd/LtkTnPPibrrp8g13TXHYFJktKklTRO8f7Hnz9Ougx4SVYc830OnxoSn5QgceZHS0ppIq0ap0hsXE+5/bNpct3B9+S+Bz6U2o/OlPG/SpEiv4HYRKktOYVVr7eqTkqI822T3F8enHqf5Dx6gVz8SqI8+dVWWfxGLbn34X+L2SUIOJa/TVG0EIoux89/1sP1oqGkQ6eTk5PNFkVF8tDp9u3b61/FM2vWLHMPgEjzHzrdvXt3c094VOTQae+742LbduzY0TxqP1dWyNu3b7du7fjagFs1aNDAul2yZIl1i+JcF8jef0IFh3C2bNnSugUQef4DQ/S8yE46MMRJXBfIgV+PChmIHv/JhY4cOWKdjhPFubJloXt59XzBTrx0E1Bd6Tlk9HXHa69ktp+gXk/C7Z/1ECgaJ6i/9tprpVevXtYh1ImJwdPZnHOS93BdtaOygk/o7RZuOyl+JGlFrPtuTj/9dGus19EM19F6FTlBvf5N27RpY0Y+HTp0kJUrV5qRzTSQo6GkWRYNGjQwWxQVyVkW3oCx9vaysLBEZ9HZVP71/v37m1dieFSnWRa2V8i651UvLRMskhXy3Llz5ejRo9Z13vxH6/kr5IpURTt37rQ+T3lkZWVZS3noiVf0eysvrlfnHOV9V+WUd1/RonP+vUWZtT506FB5//33rfVwqE4Vsu2BrFfv2L17txkVimQgo2rRfmOUnqYl0h1SHO574rRV4d+5Fy4VCWQ9Srdt27Zm5OOkQHblTj1ULfruRatJOxfCODzCHcbVDYEMAA5BIANwNSdlEIEMAA5BIAOAQxDIAOAQBDIAOASBDAAOQSADcA27DzAqC4EMAA5heyADAHyokAHAIWw/uZBeRsl/Wf5AkTy5UODZ1HJzc63Lk8fGxlpjp9CTsOiVFVCUnhs6OTnZjMJHz7GglxYKt0h9Xv85NlCxkwutX79e2rVrZ0Y+HTt2lBUrVpiRvWwPZD35uf6SgkUykB944AF58sknzQiAX2pqakT+4ekpL/U6enraUX0N64UhwoVAroSSAlmv3rFu3TozKhTJQG7fvr2sXbvWevL5qwytvKqTcJ1vN1xXKznRcza77eodeiUdXUpT2jZ6jnH/xXz9Qt0XLfXq1ZNly5ZZz4Hx48fLmDFjzCMnrjoFsu1XDGnbtq3ZoqhIXjGkTp06+k/I8+abb5p7AESaZoC+7oYOHWruCY+KXDHEW/wV27ZTp07mUfu5cqde3759rbdM3p/f3AMg0rQ9qa+7n3/+2dyDYK4MZL2cjLZQnLYjD6jOduzYYb3utHVhF6cXYa4MZL0cueIqEED06MwhpRWy7uBDca4O5GJfe/NHclXTOOv+wKX2Ff+UzHyzDeASWrAEvg6WLFliHqmcunXrWrd6jUQnXZRXfzancGUg69xnpXOQi9jxk8w+6wPJ8r6t0bc21rLpPfnVlvWyM2hToLryB7A+/3Uetf9tfo8ePaz74+PjrXFFBc76Kfbag8W1PWRVq1Yt67b8cmTzF4/Lxd06SIfTR8hLczZLtj5Xj3wtYzv2lP5ntJCkGgnS4KxHZU6mVgB5sn7qLdKjjlYateXUZ3+UQ9Zze498+vsmUsM88WNiEuSaaQdk24e/lnZ3zBJ7JiYBRV+PGsRazfrD2R/MWt1W5nUbWBWz/yY0VwayX0W/9v4v7pFTrlokl0z6Qj5/oo1MGthPbv/3bjl+PFey962QQ+d+KJl5R2T+iAUy4slZkrVmktxwyxa5dfYm2bZhipzx+jAZN1ePvjsiWTsOy8V/Wy3bti2Ql89rLLVr+v4Uu3dlCd0R2CE4jHX8yCOPWGNdDwxlVdHXT+B8dvbfhObqQK7Yk2KPfP3u29LrmYlybe/m0qpJI0mQX8pZ/RqaX+Llcv9tv5CUGnHS5syh0v3LL+TT2dNk9eDb5Ko+zSW91bly+dXHZPrsVXLU2j5e6qWmSXp6itSOzZDmjeKkWcsukvyvW6RPB18F/veFh6Tw6Q9Ehj98Q/EHsgr1etEDu8pr9erV1q0ebFTdDsQKF1cGsh41pIKPWtq8brGkd27hDdpQjsjBvbmSUidZ9M3W2m8/kPlHj0lurjcyk5MlJbCtlp8nudt3yD5v6Mbk5Ytuou2L/Nzj1hMxxlsD5+V2kE7N9SvtlrWLsnUDn14jZMIbb8nEi3bJ6Ov+LIt86Q1ETGmvwbJen2vWrDFrZdN+tNLWBRVyaK4M5JUrV1q3/mAOFBcX6w3MUBpI03b1ZNa7k2X2rGfljrvnSWzyLPlg5lZv1KrJct+Yt+T7pQvlwwnPyJwzz5VLBg2XATPulHv++i+Z8dF4efyvbWTERW0ld8WX8sH3baRjy0TrI4tISpeWrVtJ646tpAHPWURJYCtCTZkypdh9wZW0FjQVqXQPHjxo3ep5LRCaKwPZf6SQf+eeX3qbnnJs5z4TsEZsnMTHe99ixSRL/wenyn05j8oFF78iiU9+JVsXvyG17n1Y/n1AN6wt9Ta/IzdceqU8lXmt/PulK6VZ+kXy8vcvSsc542TMhDVyweR35cZOG+S90ZOkxV8floH19WevLakt0qVhHW/dXTtVWsy9S3pmNJPed22XmyZcI905oReiRAPXH8J6fgg914v/vuAw1nHt2rXNqHzq1Klj3do5B9n/8zmW9xuMipLOZdGzZ0+zRVGRPJdFixYt9K/i+eqrr8w9J2qe56H0Hp6nFmSbMVC16esj1NKgQQOzRcWtXr3a+hzhPndERc5lsWbNmmLbdu7c2TxqP1dWyJmZmdZtfn645jM0kJadanvfvkX/ZwEiwZsNIZcTOQ9F06ZNrVt/yxDFuS6Q9Unlnw/Ztm1b6/bEtZMRX3wnd3cP0RMGYPG3CPXAEg6dDs2VFbJfxQ8MAVBZ/lkWepQeR+qF5rpA1q/nP6m3nn0KQHT4d+opJ53Lwklsv2JInz595IcffjCjQpG8YohOZtcrUOi5WXU9MTEx5NU19Kob+pjdwnXVjsrS89i6kduuUhJJGsBZWVly9913F4zDdfh0Ra4YolcK6tChgxn5dOrUSZYvX25GNtNAjoaSZln069fPbFFUJGdZeAOmyJ5jFhaWyC7JyckF64MGDTKvxPCoTrMsbK+QvYEs8+bNM6NCkayQ/fQ6b3ryFOX/b12RqkhbHkePlu9QOq0OdCkPnf3hvyp2eZzo9eqczgk/X3mvUViR7Zzw7itadGbTli1brNfLeeedJ97ANI+cOCrkSiipQv7FL35htigqkhUygOqjIhWyzoUO3pZ5yAG8vxCzBgDuZnsgA4CdnFQUUiEDgEMQyADgEAQyADgEgQwADkEgA4BDEMgAXMMTnePgKo1ABgCHIJABwCEIZABwCAIZAByCQAYAhyCQAcAhCGQAcAgCGQAcgkAG4BocGFIGAhkAfAhkAHAIAhmAqzkpgwhkAHAIAhkAHIJABgCHIJABwCEIZABwCAIZgGtwYEgZCGQA8CGQAcAhCGQAcAjbAxkA4EOFDAAOQSADgEMQyADgEAQyADgEgQzANTgwpAwEMgD4EMgA4BAx3hI+KjX8okWLpHfv3mZUaNiwYfLOO++YUaHRo0fLhAkTzKjQvffeK08//bQZVW2HDh2SHTt2yLZt26xl/fr1Eh8fLw0aNLBuoyEhIcH6etGiX0u/ZlUSGxsrjRo1MqOqIzc3t+B5pN+//hzV0aWXXipTp041I5+ScmLFihXStWtXM/LR8ZIlS8zIZhrI0bBw4UKPtxoutlx99dVmi6LuvPPOkNuPHTvWbFH1eZ8w+s+QhSUiS+PGjQvW9+3bZ5511c+QIUPKnRPLly8vtm23bt3Mo/azvUL2BrJMmjTJjAq5oUJ+66235LrrrpMBAwbIZZddJi1btpRatWqZRytu48aNZi3y9uzZY1X4TpGfny9bt241o6ojKyvLWiJBX9rz5s2To0ePyvnnny8nn3yyPPjgg9WuUqZCroSSKuThw4ebLYpyQ4U8ZcoUT69evTyPP/64uQcIL2/YeLz/5D2dO3e2nmvZ2dnmkeqjOlXI7NSzkVYu+s6huvb2YL/du3eLN4StylCfazVq2P6SRykIZBslJiZatzk5OdYtAHcjkG1Us2ZN69atgXxs/07JzMz0LjslKycquzJcJ/j15ebXm/JwYEjpqJB9rQu32fGv4ZLetIecd93v5drz+0nr1G5y+yeb5Jh5PJS1bwyUUx6dK3s3Tparz3lKFhwxD6BEbg/gqoZAtpGbK+T8/Fw5PnCifPmfafL54s2y8+sR8t0j78jSUkK29eCHZPB/z5NGXR6WBndcJd2SzANANUEg28jNFXIRx3bJvOn/lFWN06VBgjesN82QO3vXk1jvcyPp5Kdk7n7v28y9X8hd57wjJ03fL/lHfpLfb75K/u/JBbLBW2mnerfT55Fv6SFPLtgg/xp+hvdW0/2ILHj2FGn++/9IZCaXOVvw68vNr7eqgEC2kdt7yDJlqDTSEE1MkzMe3CgXXneWpMdtlH/cepOsGPG5bNi2Qaaf/0/57RNfy4Fjh2Tvlh2SlecN7OWvyI1jvpXDuXnS+JJJssfjkQVPtZOBryyXbTu+kjEnJUh+bq7k5nkkf+0H8sBj82TrrizxfijgaASyjVxfIQ98RZabw8Y3zL5d1t01Tr5cvkCmLz1PbrvqF9IivZWcfdlvJf7TWbKyTgvpXN/7MfnL5ZUbx0lOv24S3LGoldJI0tNSJDHmZ1m/+KDI8c3y0R/ukR/rNZaqdbB2+FARVy0Eso1cP+2tVoo0Sk+XdO/S6sxBMqTmD7I485jEx+RJnre6Vfl5uXI8Ll7irKfJzzLzsWtlXMazMvGWbpKddaiEqjdfcnOz5NN7Bsvvttwv74w7W2qbR9yGQK5aCGQbub5lYcmXwz9vkvmvPS0v5J0tp5x8jlx1/ldy990vypQZH8lzT7woqddeLJ2TakrdhnPl9Xcy5OmnhkgLb8m7ffNuyTWfpbht8r8VJ8nr794iXSp/NHq1Q0A7G4FsIze3LOqnd5Imn2gPOU6SUzvLoL/Vl+dnPCSn120k5034Wl496X/yp7ufk6X935F/3NJdakl9yejQSq589U9yRZsEqVUvTVo2SZE48/li42tJYqz/udRUuvyyg1z18ni5rHXxbd2EAK5aCGQbaYWsP78bK+SkUx6W5bkea6K+x3NEds79q/ymSx2xng0JGdJ/1CT5Zvm38vfb+0uG1QBuIpdMWiX/uLK11Q9ucM4EWfjSeZKiD3n1GPOTvH95QzPybfvO5c2tEA7eFu7FgSFlcHMg63mBNZRdP+0NEUOFXLUQyDbTU266u4eMSNK2mL7G6tevL6mpqXL8+HHzCJzI9vMhjxw5UiZOnGhGhdxwPmTVunVr6zzG11xzjezcubOgrxyKnn84L6/k2bQa7KVV2/qxTjqHcXnp9x0XV3oHWN9tJCWVfuhe3bp1Sy0AyvM5gmnAHThwwIx89EodR44UPeRQx8eOlXZgeFEVOUeyft7gr6f03Np6prdA+r2V9busaipyPuRly5ZJ9+7dzcinW7du8tNPP5mRzTSQo6Gk8yHfdtttZoui3HA+ZJWRkaH/EFlYwr7Ex8cXuy8/P98886qPipwPeenSpcW29Qa0edR+tCxs1r9/f7n22mslOTnZ3AOEh7YpULUQyDZ7++235c0335QzzzzT3APArWzvIY8aNUqef/55Myrklh6y31dffSVff/11if09vXpwvXr1zKjitAIvrT9dFt0hVFk6k+RE3gHozx2tq3BXJ3q1kOCCp2PHjtWuCKKHXAkl9ZC1VxyKW3rIAE4MPeQw8v5CzBoARJY388yaMxHIAOAQBDIAOASBDAAOQSADgEMQyADgEAQyADgEgQwADkEgA4BDEMgAXIMDQ8pAIAOAD4EMwNWclEEEMgA4BIEMAA5BIAOAQ9geyAAAHypkAHAIAhmAazAPuQwEMgD4EMgA4BAEMgA4BIEMAA5heyADAHyokAHAIQhkAHAIAhkAHIJABuAaHBhSBgIZAHwIZABwCAIZgKs5KYMIZABwCAIZAByCQAYAhyCQAcAhCGQAcAgCGYBrcGBIGQhkAHY6evSoWbMfgQzA1WrVqmXW7EcgA3CNlJQUs+ZMBDIA18jKyjJrhZyUQQQyADgEgQzANULNsqBCDkAgA4APgQzA1aiQAxDIAOBDIANwDXrIZSCQAcCHQAbgalTIAQhkANHCyYXKQCADgI/tgQwA8KFCBuBq9JADEMgAooUechkIZADwIZABuBotiwAEMoBooWVRBgIZgJ2okAMQyADgQyADcDUq5AAEMoBooYdcBgIZgJ2okAMQyADgQyADcA1OUF8GAhkAfAhkAK5GhRyAQAYAHwIZgGvQQy4DgQwAPgQyADgEgQzANWhZlIFABgAfAhmAq1EhByCQAcCHQAbgGvSQy0AgA4APgQzA1aiQAxDIAKKFE9QDgINRIQegQgYAHwIZgKtRIQcgkAFECz3kMhDIAOxEhRyAQAYAHwIZgGvQsigDgQwAPgQyADgEgQzA1ZyUQQQyANegh1wGAhmAnaiQAxDIAOBDIANwDU5QXwYCGQB8CGQArkaFHIBABhAtzLIoA4EMwE5UyAEIZADwIZABuBoVcgACGUC00EMuA4EMAD4EMgBXo2URgEAGEC20LMpAIAOwExVyAAIZAHwIZACuRoUcgEAGEC30kAHAwaiQA1AhA4APgQzANThBfRkIZADwIZABuBoVcgACGQB8CGQArkEPuQwEMgD4EMgA4BAEMgDXoGVRBgIZAHwIZACuRoUcgEAGAB8CGYBrcLa3MhDIAOBDIANwNXrIAQhkANFCy6IMBDIAO1EhByCQAcCHQAbgalTIAQhkANFCD7kMBDIAO1EhByCQAcCHQAbgGrQsykAgA7ATLYsABDIA+BDIAFyNChkAbEAPuQxUyADsRIUcgEAGAB8CGYBrhGpZUCEHIJABwIdABuBqVMgBCGQA8CGQAbgGPeQyEMgA4EMgA3A1KuQABDKAaOFIvTIQyADgQyADcDVaFgEIZADwIZABuAbT3kqhvwgCGQB8bA9kALATFbJBIAOIJqa9lYJABmA3KmSDQAaAQgQyANegZVEKAhkAChHIAFyNHrJBIANAIQIZgGtwpF4pCGQAKEQgA4BD2BrIABBNtCxKQYUMAIUIZACuRoVsEMgAUIhABuAa9JBLQSADQCECGYCrUSEbBDKAaOJsb6UgkAHYjQrZIJABoBCBDMDVqJANAhlANNFDLgWBDMBuVMgGgQwAhQhkAK5By6IUBDIAu9GyMAhkAChEIANwNSpkg0AGEE30kEtBIAOwGxWyQSADQCECGYBrcIL6UhDIAFCIQAbgalTIBoEMAIUIZACuQQ+5FAQyABQikAHAIWwNZACIJo7UKwUVMgAUIpABuBo79QwCGQAKEcgAXINpb6UgkAGgEIEMwNWokA0CGUA0Me2tFAQyALu5ukIO/A9FIANAIVsrZACwGz1kALABPWQAcDAqZABAMQQyANfgSD0AQLkQyADgEAQyAFdzZcuiVq1akpqaKnXq1JG4uDhp1qyZdV9J9PG6deta26oaNWpYy9q1a60xAKiaNWta2aKSkpKkQ4cOBbkRrHnz5jJw4EDp0aOHtZ1+3K5du8yj9otaIGdnZ8uePXvk4MGDkpeXJ9u2bbPuK4k+fuDAAWtbdfz4cWtp166dNQYAdfToUStb1JEjR2T16tUFuRFs8+bN8tlnn8lPP/1kbacfl5aWZh61Hy0LAHAIAhmAa3CkXpg988wzBf3kyi7aOwp1PwsLiz1L9+7dQ95fnmXq1KkmHao+KmQArkGFXAkrV66Ud99914zCb/369WYNgBPoDrZw2r17t1mrWhwZyC+99FJEf6FO/y8JuE1+fr5ZC49GjRqZtaKokCvh7LPPtnpDkRIbG2vWADhB7dq1zZq7OTKQBw8ebO2889MA1Qnf4Vr0oBOdTO6UJSEhwTFLfHy8NaneCYv+3YN34Ni1cHWbyApnkaSv8ZIC3ukVcoz3G4zKd7ho0SLp3bu39QvxP7l79eolCxYssNaD6WTve+65x+onP/XUU9K3b1/zCOBu+trYsWOHGdlv48aNZq3y9Kjd0g4UK69WrVpZS0lef/11ufHGG83I57777pMnn3zSjOzl2EAGgHB77bXX5KabbjIjHycFsiNbFgDgRgQyANeIUkOg0ghkAHAIAhmAa1AhAwDKhUAG4BpUyACAciGQAbgGFTIAoFwIZABwCAIZgGvQsgAAlAuBDMA1qJABAOVCIANwDSpkAEC5EMgAXIMKGQBQLgQyANegQgYAlAsXOUXUHDp0SPbs2WNGZavo1YxLu9pwKDVr1pQmTZqYEdxg4sSJcscdd5iRzy233CJ/+ctfzMheBLJL6d9j7dq1VuhlZmZKVlaWdWl5vcR8Xl6ebN261WxZOg1YDVq3SE5OltTUVDMqWajtNPz9/wRatGgh7dq1k1NOOcXaFtHxwgsvyJ133mlGPhrQzz33nBnZi0B2CQ3ayZMny3vvvSdz5861Ahj204A+7bTTrCpt8ODB5l5EyltvvSUjRowwI5+bbrpJXn75ZTOyFz1kF1i5cqX06NFDhg8fLp999hlh7CD6j3LmzJly6aWXygUXXOCqdxt2yM7ONmuF9G/gFFTI1Zy+wLt06VJiC0L7rroEvsXOyMiQ2NhYa90vMTGxUv1W/ZwVfUseFxdnfQ+V4W+7VEZFe9yBtM2zbds2Mypq//79Bf8E9XvTv4W2ikL9Ta6//np59dVXzQjh9uabb8rvfvc7M/K58sor5f333zcjm2kgR8PChQs93iDW8LdudTnppJPMo4iUt99+u+D3rUv79u0948eP9/zwww+egwcPmq1gh927d3u8QeDp3r17wd8nPj7e463izBYIN/19B74edBk8eLB51H60LKo5rRj9tPL84x//aO3E6Nu3LzuTbKbvHoYOHWr9Tfy00l66dKkZIdy0Zx8sVBvDLgRyNXf55ZebNd+LXXuV6enp1u2ECROsVhJ9y+jStoX+3v07mK644grziI/OvkBk1KpVy6wVysnJMWv2o4fsAvfff7+MGzfOjELT/rAGQadOnaRZs2bWfdpH9vdyQ83ZDZ7365/WVR1pDzhwZ6iGauC7j8CpgoH9ZH//WLf3941L6uerkSNHWnNlERlz5syRs846y4x8Tj75ZGvmkRMQyC4xdepUK5h1xkW0pKSkWItfeUNddyD61atXr8zPEXwAiQZlYNUTuFNNBYepCvU5dLto0XbSmDFj5LHHHrPWERn/+9//rLnfgXQGkuaTExDILqOVwAcffCCzZ8+2epVazcEe2sPXcDj77LPl6quvrvTMEpTfkiVLpGfPnmbk06FDh6gWKqWJWiAvW7ZMunfvTiA7iPaONZT1ybhp0ybrbbZWhlpN6tvqUJUkShf4rsA/lTDwtk2bNlZryN8eQnStWbNGOnbsaEY+/fr1k3nz5pmRvaIWyD///LM0bdpUcnNzCeQqrDJv9zXgtW3gp+2EynyOwLZDKFphBr7dD54D7Q9GP93W3y/303FFPweVbdWhhYYeth5o0KBB8sknn5iRvaIWyEp/EYE7NLR/uH79ejMCgMhLSkoq8s/+uuuuk7/97W9mZK+oTnsL3oHjr5QBIFry8/PNmk/jxo3Nmv2iGsjBb+12795d5D8VAERa8GkBEhISzJr9ohrI3bp1M2s+ulOJnUYAoil4WmHwNEo7RTWQg6ebqNImyQNAuAW2LLQ6PuOMM8zIflEN5PPOO6/YkVzz5883awAQecePHzdrIm3btpWuXbuakf2iGsj6ViH4KBlOpAIgWnR6W+BRnHrYtJNENZCVHpUU6OOPPzZrABBZweesOPfcc82aM0Q9kIP/I+lkf6ccRw6gegs8AETnI7s+kLWBrocqBtLzKgBAJD3//POyfPlyM/IVhw0bNjQjZ4h6IOtOPd25F+inn34yawAQGa+//nrBDj3dn/Xb3/7WWneSqAey0qtVBPriiy+skw4BQCQ8/vjjRc7o1qdPH+uQaaexJZAvvvhiad++vRmJbNmyRX744QczAoDwWbx4sXXh2MCi75577jFrzmJLIKubb77ZrPk8/PDDZg0AwkcvkxV4RfCTTjpJhgwZYkbOYlsg33rrrUXObTFr1izrqhYAEA7aLx48eLAsXLjQ3COSlpYm48ePNyPnsS2Q4+PjZfjw4WYk1nmSH3nkEfn+++/NPQBQeXpJrGnTppmR76RCmjHBx0I4SVTPhxxs165d1knqA08wpJd5mjlzZpHrqAFAea1du1aeeuop66regfQK7Hr5MiezrUJWeh7S66+/3ox89Aoil1xyiUyePNncAwDlo2eQHDZsWLEwPuecc4rd50S2VshKf4F6rT29plsgnSf4xz/+0bosevDp8gAgkF4r7/3335c333yzWJakp6dbJzFz0mk2S2J7IKvp06dbU+FC0ZMR/frXv5Yrrrii2PXPALibXjVd8+Ouu+6SDRs2mHsL6SX+9UjgqtICdUQgqxtvvNE6kqYkevknvVT6BRdcUOyMcXAHfTe1Z88eMzox+kIO57m49XPp5wwH/RkPHz5sRuWXmJhYriow+GKwoQRePbsk+jmifYFXvcKQniBozpw51pWi9TY7O9s8WqhGjRoyatQoefTRR4tcpNbpHBPI+mTW3k95esf6JLjwwgvl1FNPldNOO63YtfrKoieo1oNRQtEXg77wQwm+MrKfPkl27txpRuWjLzi3hEtJv0+4g/6TCD4PejB9HYd6DvuvNl7Rf8Z6XENVPLbBMYGsKhLKgfQ/YP369a1pLbVr17YCV/9r6m2oP7IeNvnjjz+aEQC7XXrppWE5Fa/OO37ooYes2VtVkaMCWel8ZN0b+ve//12+++47c2941a1bVw4cOGBGAOym+4cCj6arCD2NprYzr7zySjnrrLPMvVWT4wLZT9+maKWs8wa1KR+ut9BKq+jK9OgAREaXLl2KnBqzPLRVOXDgQGuHf//+/c29VZtjAzmQhrM28vVsTatXr7Z6tnowifaV9u/fb4W1BuzevXvL1a/UaTCZmZlmVD4l9anL0x8rD7t6rfp71N8nYCc92ZhOXSuN7jvSVoSeVH7AgAHSqVMn80j1USUCuSK05aEhrSGutK9cq1Yta91P98Dq25xgMTExVvWMyNN/oHY89ez6uuzYLJ0WVYEzP/Rq0Lro/iG9PxxFT1VQ7QIZAKoqWw+dBgAUIpABwCEIZABwCAIZAByCQAYAhyCQAcAhCGQAcAgCGQAcgkAGAIcgkAHAIQhkAHAIAhkAHIJABgCHIJABwCEIZABwCAIZABxB5P8Bv2Ngkt22gEoAAAAASUVORK5CYII=;" vertex="1" parent="WIyWlLk6GJQsqaUBKTNV-1">
          <mxGeometry x="379.75" y="303" width="110.51" height="197.73" as="geometry" />
        </mxCell>
        <mxCell id="OF0bnibXMQKsjCnrB5dy-3" value="" style="endArrow=none;html=1;rounded=0;exitX=0.5;exitY=0;exitDx=0;exitDy=0;entryX=0.5;entryY=1;entryDx=0;entryDy=0;" edge="1" parent="WIyWlLk6GJQsqaUBKTNV-1" source="EDwAw3rbuMBAc9x-66SU-20" target="OF0bnibXMQKsjCnrB5dy-2">
          <mxGeometry width="50" height="50" relative="1" as="geometry">
            <mxPoint x="205" y="429" as="sourcePoint" />
            <mxPoint x="255" y="379" as="targetPoint" />
          </mxGeometry>
        </mxCell>
        <mxCell id="OF0bnibXMQKsjCnrB5dy-4" value="Введены данные&amp;nbsp;" style="text;html=1;align=center;verticalAlign=middle;resizable=0;points=[];autosize=1;strokeColor=none;fillColor=none;" vertex="1" parent="WIyWlLk6GJQsqaUBKTNV-1">
          <mxGeometry x="511" y="368" width="116" height="26" as="geometry" />
        </mxCell>
        <mxCell id="OF0bnibXMQKsjCnrB5dy-5" value="" style="endArrow=classic;html=1;rounded=0;exitX=1;exitY=0.25;exitDx=0;exitDy=0;entryX=1;entryY=0.5;entryDx=0;entryDy=0;" edge="1" parent="WIyWlLk6GJQsqaUBKTNV-1" source="OF0bnibXMQKsjCnrB5dy-2" target="OF0bnibXMQKsjCnrB5dy-2">
          <mxGeometry width="50" height="50" relative="1" as="geometry">
            <mxPoint x="511" y="346.4324999999999" as="sourcePoint" />
            <mxPoint x="514" y="415" as="targetPoint" />
            <Array as="points">
              <mxPoint x="515" y="352" />
              <mxPoint x="515" y="402" />
            </Array>
          </mxGeometry>
        </mxCell>
        <mxCell id="OF0bnibXMQKsjCnrB5dy-7" value="Нажата кнопка&lt;br&gt;&quot;Войти&quot;" style="text;html=1;align=center;verticalAlign=middle;resizable=0;points=[];autosize=1;strokeColor=none;fillColor=none;" vertex="1" parent="WIyWlLk6GJQsqaUBKTNV-1">
          <mxGeometry x="442" y="522" width="100" height="41" as="geometry" />
        </mxCell>
      </root>
    </mxGraphModel>
  </diagram>
</mxfile>
